# xmcd CD database file
#
# Track frame offsets:
#	150
#	15501
#	33380
#	56295
#	72023
#	91310
#	108380
#	127091
#	146440
#	161652
#	175029
#	190558
#	203400
#	218013
#	236316
#	249752
#	267166
#	286626
#	301697
#	319799
#	335493
#
# Disc length: 4752 seconds
#
# Revision: 0
# Processed by: cddbd v1.5.2PL0 Copyright (c) Steve Scherf et al.
# Submitted via: CDex 1.51
#
DISCID=0a128e15
DTITLE=Various Artist - ZM-SH-80's-CD-2
DYEAR=1900
DGENRE=Blues
TTITLE0=Kylie Minogue - I Shoud Be So Lucky
TTITLE1=Tiffany - I Think We're Alone Now
TTITLE2=Whitney Houston - I Wanna Dance With Somebody
TTITLE3=Nik Kershaw - I Won't Let The Sun Go Down On Me
TTITLE4=Duran Duran - Is There Something I Should Know
TTITLE5=Depeche Mode - Just Can't Get Enough
TTITLE6=Culture Club - Karma Chameleon
TTITLE7=David Bowie - Let's Dance
TTITLE8=Madonna - Like A Virgin
TTITLE9=Bad Manners - Lip Up Fatty
TTITLE10=Paul Young - Love Of The Common People
TTITLE11=Bucks Fizz - Making Your Mind Up
TTITLE12=Bangles The - Manic Monday
TTITLE13=Madonna - Material Girl
TTITLE14=Toy Dolls The - Nellie The Elephant
TTITLE15=Rick Asley - Never Gonna Give You Up
TTITLE16=Starship - Nothing's Gonna Stop Us Now
TTITLE17=UB40 - Red Red Wine
TTITLE18=Frankie Goes To Hollywood - Relax
TTITLE19=Mel and Kim - Respectable
TTITLE20=Talking Heads - Road To Nowhere
EXTD=
EXTT0=
EXTT1=
EXTT2=
EXTT3=
EXTT4=
EXTT5=
EXTT6=
EXTT7=
EXTT8=
EXTT9=
EXTT10=
EXTT11=
EXTT12=
EXTT13=
EXTT14=
EXTT15=
EXTT16=
EXTT17=
EXTT18=
EXTT19=
EXTT20=
PLAYORDER=
